<svg xmlns="http://www.w3.org/2000/svg">

<!-- LOGO -->
<symbol id="logo-icon" viewBox="0 0 640 640">
  
  <circle cx="320" cy="320" r="310" fill="none" stroke="#fff" stroke-width="10"/>

  <path fill="#fff" d="M102.8 57.3C108.2 51.9 116.6 51.1 123 55.3L241.9 134.5C250.8 140.4 256.1 150.4 256.1 161.1L256.1 210.7L346.9 301.5C380.2 286.5 420.8 292.6 448.1 320L574.2 446.1C592.9 464.8 592.9 495.2 574.2 514L514.1 574.1C495.4 592.8 465 592.8 446.2 574.1L320.1 448C292.7 420.6 286.6 380.1 301.6 346.8L210.8 256L161.2 256C150.5 256 140.5 250.7 134.6 241.8L55.4 122.9C51.2 116.6 52 108.1 57.4 102.7L102.8 57.3zM247.8 360.8C241.5 397.7 250.1 436.7 274 468L179.1 563C151 591.1 105.4 591.1 77.3 563C49.2 534.9 49.2 489.3 77.3 461.2L212.7 325.7L247.9 360.8zM416.1 64C436.2 64 455.5 67.7 473.2 74.5C483.2 78.3 485 91 477.5 98.6L420.8 155.3C417.8 158.3 416.1 162.4 416.1 166.6L416.1 208C416.1 216.8 423.3 224 432.1 224L473.5 224C477.7 224 481.8 222.3 484.8 219.3L541.5 162.6C549.1 155.1 561.8 156.9 565.6 166.9C572.4 184.6 576.1 203.9 576.1 224C576.1 267.2 558.9 306.3 531.1 335.1L482 286C448.9 253 403.5 240.3 360.9 247.6L304.1 190.8L304.1 161.1L303.9 156.1C303.1 143.7 299.5 131.8 293.4 121.2C322.8 86.2 366.8 64 416.1 63.9z"/>
</symbol>

<!-- FACEBOOK -->

<symbol id="facebook-icon" viewBox="0 0 640 640">
<path fill="#fff" d="M576 320C576 178.6 461.4 64 320 64C178.6 64 64 178.6 64 320C64 440 146.7 540.8 258.2 568.5L258.2 398.2L205.4 398.2L205.4 320L258.2 320L258.2 286.3C258.2 199.2 297.6 158.8 383.2 158.8C399.4 158.8 427.4 162 438.9 165.2L438.9 236C432.9 235.4 422.4 235 409.3 235C367.3 235 351.1 250.9 351.1 292.2L351.1 320L434.7 320L420.3 398.2L351 398.2L351 574.1C477.8 558.8 576 450.9 576 320z"/>
</symbol>

<!-- GITHUB -->
<symbol id="github-icon" viewBox="0 0 640 640">
<path fill="#fff" d="M237.9 461.4C237.9 463.4 235.6 465 232.7 465C229.4 465.3 227.1 463.7 227.1 461.4C227.1 459.4 229.4 457.8 232.3 457.8C235.3 457.5 237.9 459.1 237.9 461.4zM206.8 456.9C206.1 458.9 208.1 461.2 211.1 461.8C213.7 462.8 216.7 461.8 217.3 459.8C217.9 457.8 216 455.5 213 454.6C210.4 453.9 207.5 454.9 206.8 456.9zM251 455.2C248.1 455.9 246.1 457.8 246.4 460.1C246.7 462.1 249.3 463.4 252.3 462.7C255.2 462 257.2 460.1 256.9 458.1C256.6 456.2 253.9 454.9 251 455.2zM316.8 72C178.1 72 72 177.3 72 316C72 426.9 141.8 521.8 241.5 555.2C254.3 557.5 258.8 549.6 258.8 543.1C258.8 536.9 258.5 502.7 258.5 481.7C258.5 481.7 188.5 496.7 173.8 451.9C173.8 451.9 162.4 422.8 146 415.3C146 415.3 123.1 399.6 147.6 399.9C147.6 399.9 172.5 401.9 186.2 425.7C208.1 464.3 244.8 453.2 259.1 446.6C261.4 430.6 267.9 419.5 275.1 412.9C219.2 406.7 162.8 398.6 162.8 302.4C162.8 274.9 170.4 261.1 186.4 243.5C183.8 237 175.3 210.2 189 175.6C209.9 169.1 258 202.6 258 202.6C278 197 299.5 194.1 320.8 194.1C342.1 194.1 363.6 197 383.6 202.6C383.6 202.6 431.7 169 452.6 175.6C466.3 210.3 457.8 237 455.2 243.5C471.2 261.2 481 275 481 302.4C481 398.9 422.1 406.6 366.2 412.9C375.4 420.8 383.2 435.8 383.2 459.3C383.2 493 382.9 534.7 382.9 542.9C382.9 549.4 387.5 557.3 400.2 555C500.2 521.8 568 426.9 568 316C568 177.3 455.5 72 316.8 72zM169.2 416.9C167.9 417.9 168.2 420.2 169.9 422.1C171.5 423.7 173.8 424.4 175.1 423.1C176.4 422.1 176.1 419.8 174.4 417.9C172.8 416.3 170.5 415.6 169.2 416.9zM158.4 408.8C157.7 410.1 158.7 411.7 160.7 412.7C162.3 413.7 164.3 413.4 165 412C165.7 410.7 164.7 409.1 162.7 408.1C160.7 407.5 159.1 407.8 158.4 408.8zM190.8 444.4C189.2 445.7 189.8 448.7 192.1 450.6C194.4 452.9 197.3 453.2 198.6 451.6C199.9 450.3 199.3 447.3 197.3 445.4C195.1 443.1 192.1 442.8 190.8 444.4zM179.4 429.7C177.8 430.7 177.8 433.3 179.4 435.6C181 437.9 183.7 438.9 185 437.9C186.6 436.6 186.6 434 185 431.7C183.6 429.4 181 428.4 179.4 429.7z"/>
</symbol>

<!-- INSTAGRAM -->
<svg id="instagram-icon" viewBox="0 0 640 640">
<path fill="#fff" d="M290.4 275.7C274 286 264.5 304.5 265.5 323.8C266.6 343.2 278.2 360.4 295.6 368.9C313.1 377.3 333.8 375.5 349.6 364.3C366 354 375.5 335.5 374.5 316.2C373.4 296.8 361.8 279.6 344.4 271.1C326.9 262.7 306.2 264.5 290.4 275.7zM432.7 207.3C427.5 202.1 421.2 198 414.3 195.3C396.2 188.2 356.7 188.5 331.2 188.8C327.1 188.8 323.3 188.9 320 188.9C316.7 188.9 312.8 188.9 308.6 188.8C283.1 188.5 243.8 188.1 225.7 195.3C218.8 198 212.6 202.1 207.3 207.3C202 212.5 198 218.8 195.3 225.7C188.2 243.8 188.6 283.4 188.8 308.9C188.8 313 188.9 316.8 188.9 320C188.9 323.2 188.9 327 188.8 331.1C188.6 356.6 188.2 396.2 195.3 414.3C198 421.2 202.1 427.4 207.3 432.7C212.5 438 218.8 442 225.7 444.7C243.8 451.8 283.3 451.5 308.8 451.2C312.9 451.2 316.7 451.1 320 451.1C323.3 451.1 327.2 451.1 331.4 451.2C356.9 451.5 396.2 451.9 414.3 444.7C421.2 442 427.4 437.9 432.7 432.7C438 427.5 442 421.2 444.7 414.3C451.9 396.3 451.5 356.9 451.2 331.3C451.2 327.1 451.1 323.2 451.1 319.9C451.1 316.6 451.1 312.8 451.2 308.5C451.5 283 451.9 243.6 444.7 225.5C442 218.6 437.9 212.4 432.7 207.1L432.7 207.3zM365.6 251.8C383.7 263.9 396.2 282.7 400.5 304C404.8 325.3 400.3 347.5 388.2 365.6C382.2 374.6 374.5 382.2 365.6 388.2C356.7 394.2 346.6 398.3 336 400.4C314.7 404.6 292.5 400.2 274.4 388.1C256.3 376 243.8 357.2 239.5 335.9C235.2 314.6 239.7 292.4 251.7 274.3C263.7 256.2 282.6 243.7 303.9 239.4C325.2 235.1 347.4 239.6 365.5 251.6L365.6 251.6zM394.8 250.5C391.7 248.4 389.2 245.4 387.7 241.9C386.2 238.4 385.9 234.6 386.6 230.8C387.3 227 389.2 223.7 391.8 221C394.4 218.3 397.9 216.5 401.6 215.8C405.3 215.1 409.2 215.4 412.7 216.9C416.2 218.4 419.2 220.8 421.3 223.9C423.4 227 424.5 230.7 424.5 234.5C424.5 237 424 239.5 423.1 241.8C422.2 244.1 420.7 246.2 419 248C417.3 249.8 415.1 251.2 412.8 252.2C410.5 253.2 408 253.7 405.5 253.7C401.7 253.7 398 252.6 394.9 250.5L394.8 250.5zM544 160C544 124.7 515.3 96 480 96L160 96C124.7 96 96 124.7 96 160L96 480C96 515.3 124.7 544 160 544L480 544C515.3 544 544 515.3 544 480L544 160zM453 453C434.3 471.7 411.6 477.6 386 478.9C359.6 480.4 280.4 480.4 254 478.9C228.4 477.6 205.7 471.7 187 453C168.3 434.3 162.4 411.6 161.2 386C159.7 359.6 159.7 280.4 161.2 254C162.5 228.4 168.3 205.7 187 187C205.7 168.3 228.5 162.4 254 161.2C280.4 159.7 359.6 159.7 386 161.2C411.6 162.5 434.3 168.3 453 187C471.7 205.7 477.6 228.4 478.8 254C480.3 280.3 480.3 359.4 478.8 385.9C477.5 411.5 471.7 434.2 453 452.9L453 453z"/>
</svg>

<!-- REPAIR SERVICE -->
<symbol id="repair-icon" viewBox="0 0 64 64" fill="none">


  <circle cx="32" cy="32" r="30"
          stroke="white" stroke-width="2"/>


  <path d="M22 18 C22 10, 42 10, 42 18"
        stroke="white" stroke-width="2" stroke-linecap="round"/>


  <rect x="10" y="18" width="44" height="34" rx="6"
        stroke="white" stroke-width="2"/>


  <line x1="10" y1="26" x2="54" y2="26"
        stroke="white" stroke-width="2"/>

  <rect x="28" y="30" width="8" height="6" rx="2"
        stroke="white" stroke-width="2"/>


  <line x1="16" y1="36" x2="20" y2="36"
        stroke="white" stroke-width="2"/>
  <line x1="44" y1="36" x2="48" y2="36"
        stroke="white" stroke-width="2"/>

</symbol>
<!-- UPHOLSTER -->
<symbol id="upholster-icon" viewBox="0 0 64 64" fill="none">

  
  <circle cx="32" cy="32" r="30"
          stroke="white" stroke-width="2"/>

  
  <path d="M18 30 L24 22 H40 L46 30"
        stroke="white" stroke-width="2" stroke-linecap="round" stroke-linejoin="round"/>


  <path d="M14 30 H50 L52 38 H12 L14 30"
        stroke="white" stroke-width="2" stroke-linecap="round" stroke-linejoin="round"/>

  
  <path d="M22 38 V28 C22 26 24 24 26 24 H30"
        stroke="white" stroke-width="2" stroke-linecap="round"/>

  <path d="M30 24 H36 C38 24 40 26 40 28 V38"
        stroke="white" stroke-width="2" stroke-linecap="round"/>


  <line x1="22" y1="34" x2="40" y2="34"
        stroke="white" stroke-width="2" stroke-linecap="round"/>

  <circle cx="20" cy="40" r="3"
          stroke="white" stroke-width="2"/>
  <circle cx="44" cy="40" r="3"
          stroke="white" stroke-width="2"/>

</symbol>

<!-- PAINT -->
<symbol id="paint-icon" viewBox="0 0 640 640">

 
  <circle
    cx="320"
    cy="320"
    r="300"
    fill="none"
    stroke="#fff"
    stroke-width="24"
  />


  <g transform="translate(120, 120) scale(0.6)">

    <path
      fill="#fff"
      d="M64 128C64 92.7 92.7 64 128 64L416 64C451.3 64 480 92.7 480 128L496 128C540.2 128 576 163.8 576 208L576 304C576 348.2 540.2 384 496 384L336 384C327.2 384 320 391.2 320 400L320 418.7C338.6 425.3 352 443.1 352 464L352 560C352 586.5 330.5 608 304 608L272 608C245.5 608 224 586.5 224 560L224 464C224 443.1 237.4 425.3 256 418.7L256 400C256 355.8 291.8 320 336 320L496 320C504.8 320 512 312.8 512 304L512 208C512 199.2 504.8 192 496 192L480 192C480 227.3 451.3 256 416 256L128 256C92.7 256 64 227.3 64 192L64 128z"
    />

  </g>

</symbol>

<!-- HEART -->
<symbol id="heart-icon" viewBox="0 0 640 640">
<path fill="rgb(255, 255, 255)" d="M442.9 144C415.6 144 389.9 157.1 373.9 179.2L339.5 226.8C335 233 327.8 236.7 320.1 236.7C312.4 236.7 305.2 233 300.7 226.8L266.3 179.2C250.3 157.1 224.6 144 197.3 144C150.3 144 112.2 182.1 112.2 229.1C112.2 279 144.2 327.5 180.3 371.4C221.4 421.4 271.7 465.4 306.2 491.7C309.4 494.1 314.1 495.9 320.2 495.9C326.3 495.9 331 494.1 334.2 491.7C368.7 465.4 419 421.3 460.1 371.4C496.3 327.5 528.2 279 528.2 229.1C528.2 182.1 490.1 144 443.1 144zM335 151.1C360 116.5 400.2 96 442.9 96C516.4 96 576 155.6 576 229.1C576 297.7 533.1 358 496.9 401.9C452.8 455.5 399.6 502 363.1 529.8C350.8 539.2 335.6 543.9 320 543.9C304.4 543.9 289.2 539.2 276.9 529.8C240.4 502 187.2 455.5 143.1 402C106.9 358.1 64 297.7 64 229.1C64 155.6 123.6 96 197.1 96C239.8 96 280 116.5 305 151.1L320 171.8L335 151.1z"/>
</symbol>

<!-- SHARE -->
<symbol id="share-icon" viewBox="0 0 640 640">
<path 
  d="M371.8 82.4C359.8 87.4 352 99 352 112L352 192L240 192C142.8 192 64 270.8 64 368C64 481.3 145.5 531.9 164.2 542.1C166.7 543.5 169.5 544 172.3 544C183.2 544 192 535.1 192 524.3C192 516.8 187.7 509.9 182.2 504.8C172.8 496 160 478.4 160 448.1C160 395.1 203 352.1 256 352.1L352 352.1L352 432.1C352 445 359.8 456.7 371.8 461.7C383.8 466.7 397.5 463.9 406.7 454.8L566.7 294.8C579.2 282.3 579.2 262 566.7 249.5L406.7 89.5C397.5 80.3 383.8 77.6 371.8 82.6z"
  fill="none"
  stroke="currentColor"
  stroke-width="40"
  stroke-linecap="round"
  stroke-linejoin="round"
/>

</symbol>
</svg>
